<svg xmlns="http://www.w3.org/2000/svg" width="35.312" height="36.084" viewBox="0 0 35.312 36.084">
  <g id="ico_zoom" transform="translate(-2705.956 -1519.817)">
    <g id="그룹_8604" data-name="그룹 8604">
      <path id="패스_5046" data-name="패스 5046" d="M2720.26,1522.472h-.031a11.605,11.605,0,0,0-.025,23.211h.023a11.606,11.606,0,0,0,.033-23.211Zm-.031,1.968h.026a9.636,9.636,0,0,1-.04,19.272h-.024a9.636,9.636,0,0,1,.038-19.272Z" fill="#fff"/>
      <path id="패스_5047" data-name="패스 5047" d="M2712.613,1535.061h.049c.559,0,.941-.432.979-1.115a7.451,7.451,0,0,1,.1-.989,6.549,6.549,0,0,1,3.787-4.884,1,1,0,0,0,.589-1.366.929.929,0,0,0-.534-.5,1.148,1.148,0,0,0-.894.087,8.559,8.559,0,0,0-5.023,7.448v.169A1.019,1.019,0,0,0,2712.613,1535.061Z" fill="#fff"/>
      <path id="패스_5048" data-name="패스 5048" d="M2720.187,1527.487h.034a.978.978,0,0,0,.983-.966.992.992,0,0,0-.942-1h0a.976.976,0,0,0-.706.265.993.993,0,0,0-.308.707A.96.96,0,0,0,2720.187,1527.487Z" fill="#fff"/>
      <path id="패스_5049" data-name="패스 5049" d="M2741.261,1553.041a2.907,2.907,0,0,0-.731-1.389l-7.669-7.689a.973.973,0,0,0-.681-.314.913.913,0,0,0-.653.381l-.41.5-.552-.552a4.018,4.018,0,0,0,.507-.61h0c.019-.027.175-.243.246-.334a13.942,13.942,0,0,0,2.47-13.315,14.249,14.249,0,0,0-27.436,1.042c-.114.509-.2,1.03-.276,1.534-.038.238-.076.475-.12.75l0,2.089.075.514c.053.368.106.735.173,1.1a14.192,14.192,0,0,0,8.178,10.327,14.346,14.346,0,0,0,5.874,1.262,14,14,0,0,0,7.249-2.011c.585-.354,1.138-.762,1.672-1.156l.084-.062.641.641c-.116.1-.236.2-.36.3a1.106,1.106,0,0,0-.492.738,1.087,1.087,0,0,0,.4.78l4.8,4.816q1.371,1.379,2.748,2.749a2.57,2.57,0,0,0,1.809.771,2.4,2.4,0,0,0,.642-.087,2.52,2.52,0,0,0,1.757-1.844.8.8,0,0,1,.032-.1l.032-.777Zm-1.66.6a.841.841,0,0,1-1.334.442,1.893,1.893,0,0,1-.188-.174l-6.942-6.97,1.21-1.187,1.87,1.878q2.535,2.543,5.071,5.085A.882.882,0,0,1,2739.6,1553.643Zm-7.085-19.546a12.31,12.31,0,0,1-12.294,12.276h-.008a12.3,12.3,0,0,1,0-24.593h.036A12.321,12.321,0,0,1,2732.516,1534.1Z" fill="#fff"/>
    </g>
  </g>
</svg>
