<svg xmlns="http://www.w3.org/2000/svg" width="40.25" height="40.249" viewBox="0 0 40.25 40.249">
  <g id="IC_MAGN" transform="translate(1 1)">
    <path id="패스_157" data-name="패스 157" d="M823.573,328.313a17.4,17.4,0,1,0-2.032,2.031l7.186,7.186,2.032-2.031Zm-3-.971a14.511,14.511,0,1,1,4.251-10.261A14.418,14.418,0,0,1,820.569,327.342Z" transform="translate(-792.923 -299.696)" fill="#313131"/>
    <path id="패스_157_-_윤곽선" data-name="패스 157 - 윤곽선" d="M828.727,338.945l-7.257-7.257a18.483,18.483,0,1,1,3.446-3.446l7.258,7.258Zm-7.131-9.959,7.131,7.131.617-.617-7.131-7.131.6-.7a16.381,16.381,0,1,0-12.5,5.8,16.143,16.143,0,0,0,10.586-3.883Zm-11.289,3.607a15.513,15.513,0,1,1,10.969-4.544A15.41,15.41,0,0,1,810.307,332.593Zm0-29.024a13.512,13.512,0,1,0,9.554,3.957A13.423,13.423,0,0,0,810.309,303.569Z" transform="translate(-792.923 -299.696)" fill="#313131"/>
  </g>
</svg>
