<svg xmlns="http://www.w3.org/2000/svg" width="128.807" height="117.549" viewBox="0 0 128.807 117.549">
  <g id="그룹_8616" data-name="그룹 8616" transform="translate(-25.596 -38.23)">
    <path id="패스_1000" data-name="패스 1000" d="M3207.144,1711.413h-18.2a13.932,13.932,0,0,1-13.915-13.915v-8.563a13.931,13.931,0,0,1,13.915-13.915h18.2a13.931,13.931,0,0,1,13.915,13.915v8.563A13.932,13.932,0,0,1,3207.144,1711.413Zm-18.2-28.365a5.894,5.894,0,0,0-5.887,5.887v8.563a5.9,5.9,0,0,0,5.887,5.887h18.2a5.9,5.9,0,0,0,5.887-5.887v-8.563a5.894,5.894,0,0,0-5.887-5.887Z" transform="translate(-3149.438 -1636.791)" fill="#fff"/>
    <path id="패스_1001" data-name="패스 1001" d="M3207.144,1751.413h-18.2a13.931,13.931,0,0,1-13.915-13.915v-8.563a13.931,13.931,0,0,1,13.915-13.915h18.2a13.931,13.931,0,0,1,13.915,13.915v8.563A13.932,13.932,0,0,1,3207.144,1751.413Zm-18.2-28.365a5.894,5.894,0,0,0-5.887,5.887v8.563a5.9,5.9,0,0,0,5.887,5.887h18.2a5.9,5.9,0,0,0,5.887-5.887v-8.563a5.894,5.894,0,0,0-5.887-5.887Z" transform="translate(-3149.438 -1633.977)" fill="#fff"/>
    <path id="패스_43" data-name="패스 43" d="M3250.881,1692.073a11.011,11.011,0,0,0-9.607,11.025v20.658a1.076,1.076,0,0,1-.874,1.059l-2.838.55a12.071,12.071,0,0,0-9.663,11.808v9a37.6,37.6,0,0,0,8.15,23.378,1.03,1.03,0,0,1,.061,1.187,9.9,9.9,0,0,0-1.522,5.263v4.26a11.114,11.114,0,0,0,11.112,11.117h36.622a11.114,11.114,0,0,0,11.114-11.115V1776a9.958,9.958,0,0,0-1.331-4.989,1.072,1.072,0,0,1,.1-1.208,35.79,35.79,0,0,0,7.915-22.563v-10.971a12.12,12.12,0,0,0-9.764-11.828l-23.253-4.474a1.078,1.078,0,0,1-.871-1.057l-1.5-16.192a10.722,10.722,0,0,0-3.521-7.935C3258.842,1692.632,3253.76,1691.794,3250.881,1692.073Zm4.794,81.913H3283.4a2.012,2.012,0,0,1,2.012,2.011v4.26a3.09,3.09,0,0,1-3.089,3.091H3245.7a3.09,3.09,0,0,1-3.089-3.089h0V1776a2.013,2.013,0,0,1,2.013-2.012h11.052Zm.154-73.251h0a2.165,2.165,0,0,1,.883,1.746l1.5,20.81a3.92,3.92,0,0,0,3.181,3.853l3.282.567a2.264,2.264,0,0,1,1.838,2.225v1.1a1.606,1.606,0,0,0,1.605,1.606l2.847.349a1.606,1.606,0,0,0,1.605-1.605h0a1.79,1.79,0,0,1,1.79-1.789,1.759,1.759,0,0,1,.335.032l2.185.336a2.094,2.094,0,0,1,1.7,2.059v1.1a1.607,1.607,0,0,0,1.605,1.605l2.848.349a1.606,1.606,0,0,0,1.605-1.606v-.03a1.642,1.642,0,0,1,1.646-1.635,1.707,1.707,0,0,1,.3.03l2.274.5a4.025,4.025,0,0,1,3.229,3.937v10.968a27.788,27.788,0,0,1-6.464,17.875,2.407,2.407,0,0,1-1.981.856c-.085,0-.168-.006-.253-.006h-38.855a2.293,2.293,0,0,1-1.766-.825,29.636,29.636,0,0,1-6.845-18.97V1738a5.024,5.024,0,0,1,4.089-4.937,1.04,1.04,0,0,1,1.24.791,1.051,1.051,0,0,1,.022.271l.761,9.16a3.207,3.207,0,0,0,1.348,2.6c1.5,1.07,5.592,1.29,5.916-2.169v-12.459h0V1703.1a2.962,2.962,0,0,1,2.379-3.042A10.22,10.22,0,0,1,3255.83,1700.735Z" transform="translate(-3145.718 -1635.594)" fill="#fff"/>
    <path id="패스_1008" data-name="패스 1008" d="M3233.377,1708.3v-5.308a1.753,1.753,0,0,0-.516-1.266,5.862,5.862,0,0,1-1.8-4.224v-6.738a7.712,7.712,0,0,1,7.712-7.712h16.371a5.889,5.889,0,0,1,5.395,3.539,1.9,1.9,0,0,0,1.753,1.089h4.528a1.838,1.838,0,0,0,1.765-2.321,13.931,13.931,0,0,0-12.724-10.3c-.239-.012-.474-.035-.716-.035h-18.2c-.3,0-.585.026-.876.044a13.926,13.926,0,0,0-12.965,12.449,13.669,13.669,0,0,0-.073,1.421v8.563a13.67,13.67,0,0,0,.073,1.421,13.918,13.918,0,0,0,7.684,11.038A1.817,1.817,0,0,0,3233.377,1708.3Z" transform="translate(-3146.061 -1636.789)" fill="#fff"/>
  </g>
</svg>
