<svg xmlns="http://www.w3.org/2000/svg" width="110.472" height="130.145" viewBox="0 0 110.472 130.145">
  <path id="패스_1009" data-name="패스 1009" d="M-385.572-5.192V-48.606l3.987,3.987,5.172-5.172-12.78-12.78-.036.036-.036-.036-12.78,12.78,5.172,5.172,3.987-3.987V-5.192l-3.987-3.987-5.172,5.172,12.78,12.78.036-.036.036.036,12.78-12.78-5.172-5.172Z" transform="translate(402.752 91.973)" fill="#fff" stroke="rgba(0,0,0,0)" stroke-miterlimit="10" stroke-width="1"/>
  <path id="패스_3890" data-name="패스 3890" d="M-179.836-70.054h-65.39a4,4,0,0,1-4-4,4,4,0,0,1,4-4h5.409c-.043-19.748-.213-103.473.011-110.645.031-2.825,9.786-10.5,11.735-10.5h48.235a4,4,0,0,1,4,4V-74.054A4,4,0,0,1-179.836-70.054Zm-51.981-8h47.981V-191.2H-226.7c-1.334,1.115-3.693,3.172-5.144,4.448C-232.01-172.907-231.857-96.483-231.817-78.054Z" transform="translate(285.808 199.699)" fill="#fff" stroke="rgba(0,0,0,0)" stroke-miterlimit="10" stroke-width="1"/>
</svg>
