<svg xmlns="http://www.w3.org/2000/svg" width="160" height="160" viewBox="0 0 160 160">
  <g id="user_ico_5" transform="translate(-584.664 -873.115)">
    <rect id="사각형_1701" data-name="사각형 1701" width="160" height="160" transform="translate(584.664 873.115)" fill="none"/>
    <path id="합치기_80" data-name="합치기 80" d="M6383.538,23087.262a4,4,0,0,1,0-8h5.412c-.046-19.746-.214-103.473.011-110.645.029-2.822,9.787-10.5,11.733-10.5h48.236a4,4,0,0,1,4,4v121.145a4,4,0,0,1-4,4Zm13.384-116.7c-.168,13.848-.012,90.273.023,108.7h47.981v-113.143h-42.859C6400.734,22967.23,6398.376,22969.287,6396.922,22970.561Zm-40.443,87.764-.035.035-12.782-12.781,5.174-5.168,3.986,3.986v-43.416l-3.986,3.986-5.174-5.168,12.782-12.783.035.035.035-.035,12.782,12.783-5.174,5.168-3.986-3.986v43.416l3.986-3.986,5.174,5.168-12.782,12.781Zm59.923-24.549a2.825,2.825,0,0,1,0-5.65h15.626a2.825,2.825,0,0,1,0,5.65Zm-8.506-10.957v-52h33v52Zm8-8h17v-36h-17Z" transform="translate(-5744.231 -22077.701)" fill="#fff" stroke="rgba(0,0,0,0)" stroke-miterlimit="10" stroke-width="1"/>
  </g>
</svg>
