<svg xmlns="http://www.w3.org/2000/svg" width="30.893" height="44.486" viewBox="0 0 30.893 44.486">
  <g id="빼기_15" data-name="빼기 15" fill="none">
    <path d="M15.446,44.486h0l-2.738-4.457c-1.069-1.74-2.372-3.613-3.751-5.6C4.758,28.4,0,21.553,0,15.71A15.743,15.743,0,0,1,4.524,4.6a15.264,15.264,0,0,1,21.845,0A15.743,15.743,0,0,1,30.893,15.71c0,5.856-4.714,12.621-8.873,18.59-1.048,1.5-2.039,2.926-2.9,4.262-.491.756-.72,1.121-.931,1.465l-2.739,4.457ZM15.27,12.129a3.5,3.5,0,1,0,3.437,3.5A3.471,3.471,0,0,0,15.27,12.129Z" stroke="none"/>
    <path d="M 15.44675350189209 37.80463027954102 C 15.62257957458496 37.52435302734375 15.8430871963501 37.17926406860352 16.18165969848633 36.6577033996582 C 17.07794380187988 35.27187728881836 18.08393287658691 33.82810211181641 19.14889717102051 32.29968643188477 C 21.20436668395996 29.34966659545898 23.32980728149414 26.29921722412109 24.93163681030273 23.30987739562988 C 26.58820724487305 20.21838760375977 27.39347648620605 17.7325267791748 27.39347648620605 15.71023654937744 C 27.39347648620605 12.43751621246338 26.14339637756348 9.363776206970215 23.87349700927734 7.05523681640625 C 21.61927604675293 4.762606620788574 18.62644577026367 3.499996662139893 15.44633674621582 3.499996662139893 C 12.26659679412842 3.499996662139893 9.274036407470703 4.76258659362793 7.019906520843506 7.055206775665283 C 4.750056266784668 9.363796234130859 3.499996423721313 12.4375467300415 3.499996423721313 15.71023654937744 C 3.499996423721313 17.72610664367676 4.31385612487793 20.22305679321289 5.988086223602295 23.3437671661377 C 7.606986522674561 26.36134719848633 9.753816604614258 29.44837760925293 11.83000659942627 32.43380737304688 C 13.13791465759277 34.31450653076172 14.37842464447021 36.09828948974609 15.44675350189209 37.80463027954102 M 15.26958656311035 8.629306793212891 C 19.09480667114258 8.629306793212891 22.20685577392578 11.76777648925781 22.20685577392578 15.62548637390137 C 22.20685577392578 19.48364639282227 19.09480667114258 22.62248611450195 15.26958656311035 22.62248611450195 C 11.44391632080078 22.62248611450195 8.331506729125977 19.48364639282227 8.331506729125977 15.62548637390137 C 8.331506729125977 11.76777648925781 11.44391632080078 8.629306793212891 15.26958656311035 8.629306793212891 M 15.44633674621582 44.48597717285156 L 15.44556617736816 44.48472595214844 L 12.70716667175293 40.02776718139648 C 11.63808631896973 38.28802490234375 10.33554649353027 36.41504669189453 8.956536293029785 34.43210601806641 C 4.758256435394287 28.39521598815918 -3.664245696199941e-06 21.55311584472656 -3.664245696199941e-06 15.71023654937744 C -3.664245696199941e-06 11.51382637023926 1.606726288795471 7.568606853485107 4.524186134338379 4.601356506347656 C 7.441606521606445 1.634126663208008 11.32049655914307 -3.320922814964433e-06 15.44633674621582 -3.320922814964433e-06 C 19.5725269317627 -3.320922814964433e-06 23.4516658782959 1.634126663208008 26.36918640136719 4.601356506347656 C 29.2867259979248 7.568566799163818 30.89347648620605 11.5137767791748 30.89347648620605 15.71023654937744 C 30.89347648620605 21.56613731384277 26.17953681945801 28.33158683776855 22.02051544189453 34.30063629150391 C 20.97202682495117 35.8054084777832 19.98171615600586 37.2266960144043 19.11765670776367 38.56294631958008 C 18.62674713134766 39.31916809082031 18.39733695983887 39.68408584594727 18.18630599975586 40.02776718139648 L 15.44633674621582 44.48597717285156 Z M 15.26958656311035 12.12930679321289 C 13.3738260269165 12.12930679321289 11.83150672912598 13.69768714904785 11.83150672912598 15.62548637390137 C 11.83150672912598 17.55373573303223 13.3738260269165 19.12248611450195 15.26958656311035 19.12248611450195 C 17.1649055480957 19.12248611450195 18.70685577392578 17.55373573303223 18.70685577392578 15.62548637390137 C 18.70685577392578 13.69768714904785 17.1649055480957 12.12930679321289 15.26958656311035 12.12930679321289 Z" stroke="none" fill="#fff"/>
  </g>
</svg>
