<svg xmlns="http://www.w3.org/2000/svg" width="98.726" height="69" viewBox="0 0 98.726 69">
  <g id="ico_scroll" transform="translate(21.698 -10.494)">
    <g id="그룹_2087" data-name="그룹 2087" transform="translate(-21.698 10.494)">
      <g id="그룹_2083" data-name="그룹 2083" transform="translate(0 9.607) rotate(-30)">
        <path id="패스_3925" data-name="패스 3925" d="M7.258,8.316,0,20.363l7.964,4.6,6.975-12.081,4.275,2.541L17.4,0,2.983,5.776Z" transform="translate(0 0)" fill="#fff"/>
      </g>
      <g id="그룹_8600" data-name="그룹 8600" transform="translate(12.481 37.775) rotate(30)">
        <path id="패스_3925-2" data-name="패스 3925" d="M7.259,16.645,0,4.6,7.964,0l6.975,12.081L19.214,9.54,17.4,24.961,2.984,19.185Z" transform="translate(0 0)" fill="#fff"/>
      </g>
      <g id="그룹_2086" data-name="그룹 2086" transform="translate(48.608 2.914)">
        <g id="그룹_2085" data-name="그룹 2085">
          <path id="패스_3927" data-name="패스 3927" d="M2671.033,1432.576h-29.652a10.245,10.245,0,0,1-10.233-10.233v-47.817a8.036,8.036,0,1,1,16.072,0v11.924a8.109,8.109,0,0,1,3.317-.722,7.5,7.5,0,0,1,6.456,3.621,8.224,8.224,0,0,1,4.648-1.379,8.78,8.78,0,0,1,7.067,3.463,7.907,7.907,0,0,1,4.449-1.317,8.265,8.265,0,0,1,5.524,2.075,7.845,7.845,0,0,1,2.586,5.946v24.2a10.245,10.245,0,0,1-10.233,10.233Zm-31.849-61.363a3.317,3.317,0,0,0-3.313,3.313v47.817a5.516,5.516,0,0,0,5.51,5.51h29.652a5.516,5.516,0,0,0,5.51-5.51v-24.2a3.208,3.208,0,0,0-3.386-3.3,3.11,3.11,0,0,0-3.062,2.232,2.361,2.361,0,0,1-4.6-.76,3.628,3.628,0,0,0-3.856-3.618,2.811,2.811,0,0,0-3.072,2.946,2.361,2.361,0,1,1-4.723,0c0-3.249-1.237-5.189-3.309-5.189a3.3,3.3,0,0,0-3.317,3.342,2.361,2.361,0,1,1-4.723,0v-19.267a3.317,3.317,0,0,0-3.313-3.313Z" transform="translate(-2631.148 -1366.49)" fill="#fff"/>
        </g>
      </g>
    </g>
    <path id="패스_3928" data-name="패스 3928" d="M2558.592,1594.649l-8.209-8.209a3.313,3.313,0,0,1,4.686-4.685l3.524,3.524V1578.6l-.185-.185a8.036,8.036,0,1,0-11.364,11.364l11.549,11.549Z" transform="translate(-2531.39 -1529.66)" fill="#fff"/>
  </g>
</svg>
