<svg id="그룹_2088" data-name="그룹 2088" xmlns="http://www.w3.org/2000/svg" width="57.806" height="67.368" viewBox="0 0 57.806 67.368">
  <g id="그룹_2087" data-name="그룹 2087" transform="translate(0 0)">
    <g id="그룹_2083" data-name="그룹 2083" transform="translate(23.386)">
      <path id="패스_3925" data-name="패스 3925" d="M2683.188,1271.148l-5.188,8.61,5.071,4.184,5.606-9.531,3.056,1.816-1.3-11.022-10.3,4.128Z" transform="translate(-2678 -1265.204)" fill="#fff"/>
    </g>
    <g id="그룹_2084" data-name="그룹 2084" transform="translate(0 45.614)">
      <path id="패스_3926" data-name="패스 3926" d="M2507.92,1630.451l-4.437-5.451-6.892,12.548-3.056-1.816,1.3,11.022,10.3-4.128-3.055-1.816Z" transform="translate(-2493.535 -1625)" fill="#fff"/>
    </g>
    <g id="그룹_2086" data-name="그룹 2086" transform="translate(17.446 12.841)">
      <g id="그룹_2085" data-name="그룹 2085">
        <path id="패스_3927" data-name="패스 3927" d="M2663.267,1419.709h-23.879a8.25,8.25,0,0,1-8.241-8.241v-38.507a6.471,6.471,0,1,1,12.942,0v9.6a6.531,6.531,0,0,1,2.671-.582,6.042,6.042,0,0,1,5.2,2.916,6.622,6.622,0,0,1,3.743-1.111,7.071,7.071,0,0,1,5.691,2.789,6.367,6.367,0,0,1,3.583-1.06,6.655,6.655,0,0,1,4.448,1.671,6.317,6.317,0,0,1,2.082,4.789v19.491a8.25,8.25,0,0,1-8.24,8.241Zm-25.648-49.416a2.671,2.671,0,0,0-2.668,2.668v38.507a4.442,4.442,0,0,0,4.438,4.437h23.879a4.442,4.442,0,0,0,4.437-4.437v-19.491a2.583,2.583,0,0,0-2.727-2.657,2.5,2.5,0,0,0-2.466,1.8,1.9,1.9,0,0,1-3.7-.612,2.921,2.921,0,0,0-3.105-2.914,2.264,2.264,0,0,0-2.474,2.373,1.9,1.9,0,0,1-3.8,0c0-2.616-1-4.178-2.664-4.178a2.655,2.655,0,0,0-2.671,2.691,1.9,1.9,0,1,1-3.8,0v-15.515a2.671,2.671,0,0,0-2.668-2.668Z" transform="translate(-2631.148 -1366.49)" fill="#fff"/>
      </g>
    </g>
  </g>
  <path id="패스_3928" data-name="패스 3928" d="M2555.885,1591.03l-6.611-6.611a2.668,2.668,0,1,1,3.773-3.773l2.838,2.838V1578.1l-.148-.149a6.471,6.471,0,1,0-9.152,9.152l9.3,9.3Z" transform="translate(-2538.204 -1536.651)" fill="#fff"/>
</svg>
