<svg xmlns="http://www.w3.org/2000/svg" width="70" height="70" viewBox="0 0 70 70">
  <g id="ico_location" transform="translate(16.773 9.195)">
    <rect id="사각형_3797" data-name="사각형 3797" width="70" height="70" transform="translate(-16.773 -9.195)" fill="none"/>
    <path id="빼기_15" data-name="빼기 15" d="M17.226,42.925l.072-.118c.249-.406.517-.832,1.083-1.7,1-1.541,2.117-3.15,3.3-4.853a105.792,105.792,0,0,0,6.473-10.065c1.879-3.508,2.793-6.342,2.793-8.665a14.076,14.076,0,0,0-4.041-9.934,13.522,13.522,0,0,0-19.369,0A14.077,14.077,0,0,0,3.5,17.52c0,2.316.923,5.163,2.822,8.7A108.291,108.291,0,0,0,12.862,36.4c1.567,2.253,3.047,4.381,4.291,6.406l.073.119m-.2-32.9a7.4,7.4,0,1,1-7.334,7.4,7.375,7.375,0,0,1,7.334-7.4m.2,39.583h0l-3.054-4.97c-1.192-1.94-2.645-4.029-4.183-6.24C5.307,31.666,0,24.036,0,17.52A17.556,17.556,0,0,1,5.046,5.132a17.022,17.022,0,0,1,24.361,0A17.556,17.556,0,0,1,34.452,17.52c0,6.53-5.257,14.075-9.895,20.731C23.388,39.93,22.284,41.515,21.32,43c-.547.843-.8,1.25-1.039,1.633Zm-.2-36.083a3.9,3.9,0,1,0,3.833,3.9A3.871,3.871,0,0,0,17.029,13.527Z" transform="translate(1 1)" fill="#fff"/>
  </g>
</svg>
