<svg xmlns="http://www.w3.org/2000/svg" width="158.626" height="113.064" viewBox="0 0 158.626 113.064">
  <path id="합치기_83" data-name="합치기 83" d="M5735.721,22656.129a11.321,11.321,0,0,1-11.042-9.119l-4.185-21.727a1,1,0,0,0-.983-.812l-15.13-1.4a10.028,10.028,0,0,1-7.415-3.293c-2.007-2.217-2.792-6.965-2.53-9.654a10.282,10.282,0,0,1,10.3-8.973h19.3a1.006,1.006,0,0,0,.989-.818l.512-2.65a11.284,11.284,0,0,1,11.031-9.029h8.41a35.131,35.131,0,0,1,21.839,7.613.957.957,0,0,0,1.109.057,9.264,9.264,0,0,1,4.918-1.422h3.98a10.383,10.383,0,0,1,10.383,10.383v34.213a10.383,10.383,0,0,1-10.383,10.383h-3.98a9.309,9.309,0,0,1-4.663-1.24,1.006,1.006,0,0,0-1.125.092,33.454,33.454,0,0,1-21.083,7.4Zm-4.145-12.639.466,2.125a3.771,3.771,0,0,0,3.679,3.02h10.252a25.966,25.966,0,0,0,16.7-6.043,2.252,2.252,0,0,0,.8-1.848c-.005-.08-.011-.16-.011-.24v-36.3a2.119,2.119,0,0,0-.768-1.648,27.68,27.68,0,0,0-17.717-6.4h-7.636a4.691,4.691,0,0,0-4.611,3.814.976.976,0,0,0,1,1.184l8.557.711a3,3,0,0,1,2.434,1.256c1,1.41,1.206,5.227-2.03,5.527h-11.639v.006l-26.309-.006a2.771,2.771,0,0,0-2.843,2.223,9.519,9.519,0,0,0,.631,3.879,2.019,2.019,0,0,0,1.632.824l19.44,1.4a3.671,3.671,0,0,1,3.6,2.973l.529,3.066a2.115,2.115,0,0,0,2.081,1.717h1.029a1.5,1.5,0,0,1,1.5,1.5l.33,2.662a1.5,1.5,0,0,1-1.5,1.5,1.67,1.67,0,0,0-1.644,1.984l.313,2.047a1.958,1.958,0,0,0,1.927,1.588h1.023a1.5,1.5,0,0,1,1.5,1.5l.324,2.662a1.5,1.5,0,0,1-1.5,1.5h-.028A1.533,1.533,0,0,0,5731.576,22643.49Zm39.387-39.211v36.225a1.88,1.88,0,0,0,1.876,1.883h3.98a2.889,2.889,0,0,0,2.888-2.889v-34.213a2.888,2.888,0,0,0-2.883-2.889h-3.98A1.885,1.885,0,0,0,5770.962,22604.279Zm-100.146,7.262a33.442,33.442,0,0,1-21.083-7.4,1.007,1.007,0,0,0-1.126-.1,9.288,9.288,0,0,1-4.663,1.244h-3.98a10.382,10.382,0,0,1-10.383-10.383V22560.7a10.378,10.378,0,0,1,10.383-10.383h3.98a9.264,9.264,0,0,1,4.918,1.422.97.97,0,0,0,1.109-.057,35.122,35.122,0,0,1,21.839-7.615h8.41a11.272,11.272,0,0,1,11.025,9.029l.518,2.65a1,1,0,0,0,.989.818h19.3a10.288,10.288,0,0,1,10.3,8.973c.262,2.689-.523,7.438-2.536,9.654a10,10,0,0,1-7.409,3.293l-15.13,1.4a1.007,1.007,0,0,0-.989.813l-4.179,21.727a11.325,11.325,0,0,1-11.042,9.121Zm-16.723-53.58a2.148,2.148,0,0,0-.773,1.65v36.3c0,.078,0,.158-.005.238a2.252,2.252,0,0,0,.8,1.848,25.951,25.951,0,0,0,16.7,6.039h10.251a3.755,3.755,0,0,0,3.673-3.014l.466-2.127a1.53,1.53,0,0,0-1.5-1.82h-.028a1.5,1.5,0,0,1-1.5-1.5l.324-2.662a1.5,1.5,0,0,1,1.5-1.5h1.023a1.956,1.956,0,0,0,1.922-1.592l.318-2.041a1.672,1.672,0,0,0-1.643-1.984,1.5,1.5,0,0,1-1.5-1.5l.324-2.66a1.5,1.5,0,0,1,1.5-1.5h1.035a2.115,2.115,0,0,0,2.081-1.717l.529-3.064a3.661,3.661,0,0,1,3.593-2.975l19.446-1.4a2.039,2.039,0,0,0,1.632-.824,9.622,9.622,0,0,0,.631-3.879,2.767,2.767,0,0,0-2.843-2.223l-26.309.006-.005-.006H5674.1c-3.23-.3-3.031-4.121-2.024-5.525a3,3,0,0,1,2.434-1.258l8.557-.711a.969.969,0,0,0,.99-1.182,4.687,4.687,0,0,0-4.611-3.816h-7.631A27.68,27.68,0,0,0,5654.093,22557.961Zm-17.018,2.736v34.211a2.892,2.892,0,0,0,2.889,2.889h3.98a1.881,1.881,0,0,0,1.882-1.881v-36.227a1.881,1.881,0,0,0-1.882-1.881h-3.98A2.889,2.889,0,0,0,5637.075,22560.7Z" transform="translate(-5629.081 -22543.564)" fill="#fff" stroke="rgba(0,0,0,0)" stroke-miterlimit="10" stroke-width="1"/>
</svg>
