<svg xmlns="http://www.w3.org/2000/svg" width="90.786" height="128.424" viewBox="0 0 90.786 128.424">
  <path id="합치기_81" data-name="합치기 81" d="M5901.223,23569.424l-1.088-1.869s-17.106-29.287-18.828-32.273c-4.241-7.359-2.318-12.836.9-15.51a10.189,10.189,0,0,1,12.842.064c2.331,1.994,4.962,4.6,7.08,6.768a.109.109,0,0,0,.184-.082v-38.2c0-6.229,4.531-11.848,10.736-12.4a11.842,11.842,0,0,1,12.919,11.777v21.336a.1.1,0,0,0,.071.09l4.608,1.348c9.553,2.773,17.633,5.141,19.8,5.975a11.964,11.964,0,0,1,7.785,11.576v24.193c0,4.914-3.236,11.107-5.951,15.438l-1.112,1.77Zm-14.208-43.861c-1.089.9-.781,3.188.816,5.957,1.449,2.52,13.871,23.791,17.692,30.332a.08.08,0,0,0,.077.041h41.3a.121.121,0,0,0,.095-.053c2.342-4.045,3.7-7.559,3.7-9.623v-24.193a4.4,4.4,0,0,0-2.969-4.555c-2.041-.787-12.771-3.9-19.183-5.773-10.038-2.916-10.038-2.916-10.1-5.715v-23.949a4.538,4.538,0,0,0-3.661-4.584,4.312,4.312,0,0,0-4.945,4.252v49.355a.106.106,0,0,1-.106.107h-8.015l-1.124-1.242c-.053-.064-5.992-6.561-10.435-10.363a2.4,2.4,0,0,0-1.552-.516A2.522,2.522,0,0,0,5887.015,23525.563Zm51.361-34.1a.04.04,0,0,1-.042-.041v-7.447a.04.04,0,0,1,.042-.041h18.733a.04.04,0,0,1,.042.041v7.447a.04.04,0,0,1-.042.041Zm-69.893,0a.04.04,0,0,1-.042-.041v-7.447a.04.04,0,0,1,.042-.041h18.733a.04.04,0,0,1,.042.041v7.447a.04.04,0,0,1-.042.041Zm64.422-19.951-5.271-5.264a.057.057,0,0,1,0-.061l13.386-13.385a.054.054,0,0,1,.059,0l5.265,5.27a.039.039,0,0,1,0,.059l-13.386,13.381a.03.03,0,0,1-.027.014A.03.03,0,0,1,5932.9,23471.516Zm-40.271,0-13.386-13.381a.038.038,0,0,1,0-.059l5.264-5.27a.054.054,0,0,1,.059,0l13.386,13.385a.057.057,0,0,1,0,.061l-5.271,5.264a.033.033,0,0,1-.053,0Zm17.781-10.7a.044.044,0,0,1-.041-.041v-18.738a.04.04,0,0,1,.041-.041h7.447a.04.04,0,0,1,.042.041v18.738a.044.044,0,0,1-.042.041Z" transform="translate(-5867.941 -23441.5)" fill="#fff" stroke="rgba(0,0,0,0)" stroke-miterlimit="10" stroke-width="1"/>
</svg>
