<svg xmlns="http://www.w3.org/2000/svg" width="121.422" height="99.041" viewBox="0 0 121.422 99.041">
  <path id="합치기_82" data-name="합치기 82" d="M6261.971,23832.326l-35.906-27.621h-21.4a4,4,0,0,1-4-4v-34.141a4,4,0,0,1,4-4h21.4l35.906-27.617a4,4,0,0,1,2.44-.83,3.933,3.933,0,0,1,1.765.412,3.99,3.99,0,0,1,2.231,3.588v91.037a3.994,3.994,0,0,1-6.436,3.17Zm-53.306-35.619h18.758a3.994,3.994,0,0,1,2.44.832l30.547,23.5v-74.793l-30.547,23.5a4,4,0,0,1-2.44.83h-18.758Zm94.094,19.938a4,4,0,0,1,0-5.652,38.68,38.68,0,0,0,0-54.7,4,4,0,0,1,5.658-5.658,46.687,46.687,0,0,1,0,66.012,4,4,0,0,1-5.658,0Zm-10.061-10.061a4,4,0,0,1,0-5.652,24.457,24.457,0,0,0,0-34.58,4,4,0,0,1,5.659-5.658,32.449,32.449,0,0,1,0,45.891,4,4,0,0,1-5.659,0Zm-10.061-10.062a4,4,0,0,1,0-5.652,10.217,10.217,0,0,0,0-14.457,4,4,0,0,1,5.658-5.658,18.219,18.219,0,0,1,0,25.775,4.006,4.006,0,0,1-5.658-.008Z" transform="translate(-6200.662 -23734.119)" fill="#fff"/>
</svg>
