<svg xmlns="http://www.w3.org/2000/svg" width="63.072" height="89.516" viewBox="0 0 63.072 89.516">
  <path id="합치기_79" data-name="합치기 79" d="M7320.473,22167.963l-.768-1.314s-12.017-20.572-13.224-22.67c-2.982-5.174-1.63-9.02.628-10.895a7.156,7.156,0,0,1,9.019.045c1.635,1.4,3.488,3.227,4.979,4.752a.076.076,0,0,0,.128-.057v-26.832a8.608,8.608,0,0,1,7.539-8.717,8.324,8.324,0,0,1,9.08,8.277v14.988a.06.06,0,0,0,.044.061c.923.273,2.092.613,3.244.945,6.7,1.953,12.384,3.611,13.9,4.2a8.406,8.406,0,0,1,5.469,8.129v17c0,3.455-2.275,7.8-4.178,10.848l-.779,1.242Zm-9.98-30.816c-.773.639-.557,2.242.567,4.189,1.018,1.77,9.747,16.713,12.429,21.307a.056.056,0,0,0,.056.029h29.013a.088.088,0,0,0,.067-.039c1.641-2.838,2.6-5.309,2.6-6.76v-17a3.1,3.1,0,0,0-2.086-3.2c-1.435-.551-8.974-2.742-13.48-4.051-7.055-2.053-7.055-2.053-7.093-4.016l-.006-16.824a3.181,3.181,0,0,0-2.57-3.221,3.024,3.024,0,0,0-3.472,2.986v34.672a.075.075,0,0,1-.078.072h-5.63l-.79-.869c-.039-.043-4.211-4.605-7.327-7.281a1.7,1.7,0,0,0-1.1-.363A1.752,1.752,0,0,0,7310.493,22137.146Zm36.09-23.951a.039.039,0,0,1-.044-.039v-5.207a.04.04,0,0,1,.044-.039h13.135a.039.039,0,0,1,.039.039v5.207a.038.038,0,0,1-.039.039Zm-49.1,0a.037.037,0,0,1-.039-.039v-5.207a.038.038,0,0,1,.039-.039h13.141a.038.038,0,0,1,.039.039v5.207a.037.037,0,0,1-.039.039Zm45.236-14.02-3.683-3.684a.036.036,0,0,1,0-.055l9.386-9.387a.039.039,0,0,1,.056,0l3.683,3.684a.038.038,0,0,1,0,.057l-9.385,9.385a.039.039,0,0,1-.056,0Zm-28.29,0-9.385-9.385a.038.038,0,0,1,0-.057l3.683-3.684a.039.039,0,0,1,.056,0l9.386,9.387a.036.036,0,0,1,0,.055l-3.683,3.684a.039.039,0,0,1-.056,0Zm12.512-7.506a.042.042,0,0,1-.039-.043v-13.137a.042.042,0,0,1,.039-.043h5.208a.042.042,0,0,1,.039.043v13.137a.042.042,0,0,1-.039.043Z" transform="translate(-7297.441 -22078.447)" fill="#fff"/>
</svg>
