<svg xmlns="http://www.w3.org/2000/svg" width="70" height="70" viewBox="0 0 70 70">
  <g id="weather_ico_3" transform="translate(-0.031 3.939)">
    <rect id="사각형_2601" data-name="사각형 2601" width="70" height="70" transform="translate(0.031 -3.939)" fill="none"/>
    <path id="패스_5026" data-name="패스 5026" d="M1925.816,94.4c0,.373.02.745.057,1.116a10.3,10.3,0,0,0-6.845,9.536h-7.382a9.115,9.115,0,0,1-9.116-9.119,9.178,9.178,0,0,1,6.5-8.734,9.467,9.467,0,0,1-.1-1.4,9.652,9.652,0,0,1,17.925-4.974,8.3,8.3,0,0,1,8.09,2.912A10.815,10.815,0,0,0,1925.816,94.4Z" transform="translate(-1897.102 -63.059)" fill="#313131"/>
    <path id="패스_5027" data-name="패스 5027" d="M2034.678,138.752H2034c.021-.226.033-.455.033-.687a7.491,7.491,0,0,0-9.912-7.09,8.936,8.936,0,0,0-16.7,6.231,8.369,8.369,0,0,0-7.146,8.278h0a8.368,8.368,0,0,0,8.368,8.368h26.03a7.55,7.55,0,0,0,7.55-7.55h0A7.55,7.55,0,0,0,2034.678,138.752Z" transform="translate(-1976.493 -103.367)" fill="#313131"/>
  </g>
</svg>
