<svg xmlns="http://www.w3.org/2000/svg" width="70" height="70" viewBox="0 0 70 70">
  <g id="weather_ico_2" transform="translate(-0.031 3.939)">
    <rect id="사각형_2601" data-name="사각형 2601" width="70" height="70" transform="translate(0.031 -3.939)" fill="none"/>
    <path id="합치기_75" data-name="합치기 75" d="M8278.694,21186.143h-16a8.385,8.385,0,0,1-1.223-16.68,8.952,8.952,0,0,1,16.727-6.246,7.641,7.641,0,0,1,2.431-.4,7.505,7.505,0,0,1,7.5,7.5c0,.232-.011.467-.032.691h.676a7.565,7.565,0,1,1,0,15.131Zm-37.177-7.135a1.408,1.408,0,0,1,0-1.988l4.77-4.77a1.406,1.406,0,0,1,1.988,1.988l-4.77,4.77a1.422,1.422,0,0,1-.994.41A1.4,1.4,0,0,1,8241.518,21179.008Zm4.057-16.631a12.774,12.774,0,0,1,23.8-6.451,11.078,11.078,0,0,0-10.374,11.039c0,.324.017.639.043.957a10.582,10.582,0,0,0-6.115,6.023A12.781,12.781,0,0,1,8245.574,21162.377Zm-9.48,1.26a1.4,1.4,0,1,1,0-2.809h6.742a1.4,1.4,0,1,1,0,2.809Zm32.339-11.135a1.4,1.4,0,0,1,0-1.988l4.769-4.77a1.406,1.406,0,0,1,1.989,1.988l-4.77,4.77a1.4,1.4,0,0,1-.994.416A1.383,1.383,0,0,1,8268.433,21152.5Zm-21.943-.2-4.77-4.77a1.406,1.406,0,0,1,1.988-1.988l4.77,4.77a1.408,1.408,0,0,1,0,1.988,1.387,1.387,0,0,1-.994.408A1.4,1.4,0,0,1,8246.489,21152.3Zm10.6-5.439v-6.742a1.406,1.406,0,0,1,2.813,0v6.742a1.406,1.406,0,1,1-2.812,0Z" transform="translate(-8229.484 -21135.268)" fill="#313131" stroke="rgba(0,0,0,0)" stroke-miterlimit="10" stroke-width="1"/>
  </g>
</svg>
