<svg xmlns="http://www.w3.org/2000/svg" width="70" height="70" viewBox="0 0 70 70">
  <g id="weather_ico_5" transform="translate(-0.031 3.939)">
    <rect id="사각형_2601" data-name="사각형 2601" width="70" height="70" transform="translate(0.031 -3.939)" fill="none"/>
    <path id="패스_5028" data-name="패스 5028" d="M2726.855,82.914a9.9,9.9,0,0,0-11.926-9.1,11.541,11.541,0,0,0-21.335,7.656,10.9,10.9,0,0,0,3.043,21.36h29.577a9.967,9.967,0,0,0,.642-19.914Z" transform="translate(-2675.93 -60.359)" fill="#313131"/>
    <path id="패스_5033" data-name="패스 5033" d="M2693.873,415.724l-.766-.442.685-.425a.285.285,0,1,0-.3-.484l-.944.586-.755-.436V412.81l.755-.436.944.586a.285.285,0,1,0,.3-.484l-.685-.425.766-.442a.285.285,0,0,0-.285-.493l-.766.442-.025-.805a.285.285,0,0,0-.57.018l.036,1.11-.755.436-1.483-.856v-.872l.979-.525a.285.285,0,0,0-.269-.5l-.71.381v-.884a.285.285,0,1,0-.569,0v.884l-.71-.381a.285.285,0,1,0-.269.5l.979.525v.872l-1.483.856-.755-.436.035-1.11a.285.285,0,1,0-.569-.018l-.026.805-.766-.442a.285.285,0,0,0-.285.493l.766.442-.685.425a.285.285,0,0,0,.3.484l.944-.586.755.436v1.712l-.755.436-.944-.586a.285.285,0,0,0-.3.484l.685.425-.766.442a.285.285,0,0,0,.285.493l.766-.442.026.805a.285.285,0,0,0,.284.276h.009a.285.285,0,0,0,.275-.294l-.035-1.11.755-.436,1.483.856v.872l-.979.525a.285.285,0,1,0,.269.5l.71-.38v.884a.285.285,0,1,0,.569,0v-.884l.71.38a.285.285,0,0,0,.269-.5l-.979-.525v-.872l1.483-.856.755.436-.036,1.11a.285.285,0,0,0,.276.294h.009a.286.286,0,0,0,.285-.276l.025-.805.766.442a.28.28,0,0,0,.142.038.285.285,0,0,0,.143-.531Zm-2.65-1.53-.914-.527.914-.527Zm-.285-1.548-.913.527v-1.055Zm-1.482-.527v1.055l-.914-.527Zm-1.2,1.02.914.527-.914.527Zm.285,1.548.914-.527v1.055Zm1.483.527V414.16l.913.527Z" transform="translate(-2672.978 -360.973)" fill="#313131" stroke="#313131" stroke-width="0.5"/>
    <path id="패스_5034" data-name="패스 5034" d="M2693.873,415.724l-.766-.442.685-.425a.285.285,0,1,0-.3-.484l-.944.586-.755-.436V412.81l.755-.436.944.586a.285.285,0,1,0,.3-.484l-.685-.425.766-.442a.285.285,0,0,0-.285-.493l-.766.442-.025-.805a.285.285,0,0,0-.57.018l.036,1.11-.755.436-1.483-.856v-.872l.979-.525a.285.285,0,0,0-.269-.5l-.71.381v-.884a.285.285,0,1,0-.569,0v.884l-.71-.381a.285.285,0,1,0-.269.5l.979.525v.872l-1.483.856-.755-.436.035-1.11a.285.285,0,1,0-.569-.018l-.026.805-.766-.442a.285.285,0,0,0-.285.493l.766.442-.685.425a.285.285,0,0,0,.3.484l.944-.586.755.436v1.712l-.755.436-.944-.586a.285.285,0,0,0-.3.484l.685.425-.766.442a.285.285,0,0,0,.285.493l.766-.442.026.805a.285.285,0,0,0,.284.276h.009a.285.285,0,0,0,.275-.294l-.035-1.11.755-.436,1.483.856v.872l-.979.525a.285.285,0,1,0,.269.5l.71-.38v.884a.285.285,0,1,0,.569,0v-.884l.71.38a.285.285,0,0,0,.269-.5l-.979-.525v-.872l1.483-.856.755.436-.036,1.11a.285.285,0,0,0,.276.294h.009a.286.286,0,0,0,.285-.276l.025-.805.766.442a.28.28,0,0,0,.142.038.285.285,0,0,0,.143-.531Zm-2.65-1.53-.914-.527.914-.527Zm-.285-1.548-.913.527v-1.055Zm-1.482-.527v1.055l-.914-.527Zm-1.2,1.02.914.527-.914.527Zm.285,1.548.914-.527v1.055Zm1.483.527V414.16l.913.527Z" transform="translate(-2659.512 -360.973)" fill="#313131" stroke="#313131" stroke-width="0.5"/>
    <path id="패스_5035" data-name="패스 5035" d="M2693.873,415.724l-.766-.442.685-.425a.285.285,0,1,0-.3-.484l-.944.586-.755-.436V412.81l.755-.436.944.586a.285.285,0,1,0,.3-.484l-.685-.425.766-.442a.285.285,0,0,0-.285-.493l-.766.442-.025-.805a.285.285,0,0,0-.57.018l.036,1.11-.755.436-1.483-.856v-.872l.979-.525a.285.285,0,0,0-.269-.5l-.71.381v-.884a.285.285,0,1,0-.569,0v.884l-.71-.381a.285.285,0,1,0-.269.5l.979.525v.872l-1.483.856-.755-.436.035-1.11a.285.285,0,1,0-.569-.018l-.026.805-.766-.442a.285.285,0,0,0-.285.493l.766.442-.685.425a.285.285,0,0,0,.3.484l.944-.586.755.436v1.712l-.755.436-.944-.586a.285.285,0,0,0-.3.484l.685.425-.766.442a.285.285,0,0,0,.285.493l.766-.442.026.805a.285.285,0,0,0,.284.276h.009a.285.285,0,0,0,.275-.294l-.035-1.11.755-.436,1.483.856v.872l-.979.525a.285.285,0,1,0,.269.5l.71-.38v.884a.285.285,0,1,0,.569,0v-.884l.71.38a.285.285,0,0,0,.269-.5l-.979-.525v-.872l1.483-.856.755.436-.036,1.11a.285.285,0,0,0,.276.294h.009a.286.286,0,0,0,.285-.276l.025-.805.766.442a.28.28,0,0,0,.142.038.285.285,0,0,0,.143-.531Zm-2.65-1.53-.914-.527.914-.527Zm-.285-1.548-.913.527v-1.055Zm-1.482-.527v1.055l-.914-.527Zm-1.2,1.02.914.527-.914.527Zm.285,1.548.914-.527v1.055Zm1.483.527V414.16l.913.527Z" transform="translate(-2647.167 -360.973)" fill="#313131" stroke="#313131" stroke-width="0.5"/>
    <path id="패스_5036" data-name="패스 5036" d="M2693.873,415.724l-.766-.442.685-.425a.285.285,0,1,0-.3-.484l-.944.586-.755-.436V412.81l.755-.436.944.586a.285.285,0,1,0,.3-.484l-.685-.425.766-.442a.285.285,0,0,0-.285-.493l-.766.442-.025-.805a.285.285,0,0,0-.57.018l.036,1.11-.755.436-1.483-.856v-.872l.979-.525a.285.285,0,0,0-.269-.5l-.71.381v-.884a.285.285,0,1,0-.569,0v.884l-.71-.381a.285.285,0,1,0-.269.5l.979.525v.872l-1.483.856-.755-.436.035-1.11a.285.285,0,1,0-.569-.018l-.026.805-.766-.442a.285.285,0,0,0-.285.493l.766.442-.685.425a.285.285,0,0,0,.3.484l.944-.586.755.436v1.712l-.755.436-.944-.586a.285.285,0,0,0-.3.484l.685.425-.766.442a.285.285,0,0,0,.285.493l.766-.442.026.805a.285.285,0,0,0,.284.276h.009a.285.285,0,0,0,.275-.294l-.035-1.11.755-.436,1.483.856v.872l-.979.525a.285.285,0,1,0,.269.5l.71-.38v.884a.285.285,0,1,0,.569,0v-.884l.71.38a.285.285,0,0,0,.269-.5l-.979-.525v-.872l1.483-.856.755.436-.036,1.11a.285.285,0,0,0,.276.294h.009a.286.286,0,0,0,.285-.276l.025-.805.766.442a.28.28,0,0,0,.142.038.285.285,0,0,0,.143-.531Zm-2.65-1.53-.914-.527.914-.527Zm-.285-1.548-.913.527v-1.055Zm-1.482-.527v1.055l-.914-.527Zm-1.2,1.02.914.527-.914.527Zm.285,1.548.914-.527v1.055Zm1.483.527V414.16l.913.527Z" transform="translate(-2634.822 -360.973)" fill="#313131" stroke="#313131" stroke-width="0.5"/>
  </g>
</svg>
