<svg xmlns="http://www.w3.org/2000/svg" width="70" height="70" viewBox="0 0 70 70">
  <g id="weather_ico_1" transform="translate(-0.031 3.939)">
    <path id="합치기_74" data-name="합치기 74" d="M6601.369,21134.605v-8.334a1.515,1.515,0,1,1,3.029,0v8.334a1.515,1.515,0,1,1-3.029,0Zm19.95-6.859-5.893-5.9a1.513,1.513,0,0,1,2.138-2.143l5.9,5.9a1.515,1.515,0,0,1-2.143,2.143Zm-38.914-.254a1.52,1.52,0,0,1,0-2.143l5.9-5.895a1.514,1.514,0,0,1,2.143,2.139l-5.9,5.9a1.512,1.512,0,0,1-2.143,0Zm5.082-20.4a15.574,15.574,0,1,1,15.574,15.572A15.591,15.591,0,0,1,6587.487,21107.092Zm34.75,1.691a1.515,1.515,0,0,1,0-3.029h8.338a1.515,1.515,0,1,1,0,3.029Zm-46.69-.355a1.515,1.515,0,1,1,0-3.029h8.338a1.515,1.515,0,0,1,0,3.029Zm40.133-13.7a1.507,1.507,0,0,1,0-2.139l5.894-5.9a1.515,1.515,0,0,1,2.143,2.143l-5.9,5.895a1.51,1.51,0,0,1-1.071.445A1.491,1.491,0,0,1,6615.68,21094.727Zm-27.122-.256-5.9-5.893a1.515,1.515,0,0,1,2.143-2.143l5.893,5.9a1.5,1.5,0,0,1,0,2.137,1.5,1.5,0,0,1-2.138,0Zm13.166-6.555v-8.34a1.514,1.514,0,1,1,3.029,0v8.34a1.514,1.514,0,0,1-3.029,0Z" transform="translate(-6568 -21075.998)" fill="#313131" stroke="rgba(0,0,0,0)" stroke-miterlimit="10" stroke-width="1"/>
    <rect id="사각형_2601" data-name="사각형 2601" width="70" height="70" transform="translate(0.031 -3.939)" fill="none"/>
  </g>
</svg>
